P3
# Created by Paint Shop Pro
16 16
255
0 0 0 170 0 0 170 0 0 170 0 0 170 0 0 170 0 0 170 0 0 170 0 0 170 0 0 170 0 0 
170 0 0 170 0 0 170 0 0 170 0 0 170 0 0 0 0 0 0 0 0 170 0 0 170 0 0 255 85 85 
255 85 85 255 85 85 170 0 0 170 0 0 170 0 0 170 0 0 255 85 85 255 85 85 
255 85 85 170 0 0 170 0 0 0 0 0 170 0 0 170 0 0 255 85 85 255 85 85 255 85 85 
255 85 85 255 85 85 170 0 0 170 0 0 255 85 85 255 85 85 255 85 85 255 85 85 
255 85 85 170 0 0 170 0 0 170 0 0 170 0 0 255 85 85 255 85 85 255 85 85 
255 85 85 255 85 85 255 0 0 255 0 0 255 85 85 255 85 85 255 85 85 255 85 85 
255 85 85 170 0 0 170 0 0 170 0 0 170 0 0 255 85 85 255 0 0 255 0 0 255 0 0 
255 0 0 255 85 85 255 85 85 255 0 0 255 0 0 255 0 0 255 0 0 255 85 85 170 0 0 
170 0 0 0 0 0 170 0 0 255 85 85 170 0 0 170 0 0 170 0 0 170 0 0 170 0 0 
170 0 0 170 0 0 170 0 0 170 0 0 170 0 0 170 0 0 170 0 0 0 0 0 0 0 0 170 0 0 
170 0 0 255 85 85 170 0 0 170 0 0 170 0 0 170 0 0 170 0 0 170 0 0 170 0 0 
170 0 0 170 0 0 170 0 0 170 0 0 0 0 0 0 0 0 170 0 0 170 0 0 255 0 0 170 0 0 
170 0 0 170 0 0 170 0 0 170 0 0 170 0 0 170 0 0 170 0 0 170 0 0 170 0 0 
170 0 0 0 0 0 0 0 0 0 0 0 170 0 0 170 0 0 255 0 0 170 0 0 170 0 0 170 0 0 
170 0 0 170 0 0 170 0 0 170 0 0 170 0 0 170 0 0 0 0 0 0 0 0 0 0 0 0 0 0 
170 0 0 170 0 0 170 0 0 255 0 0 255 0 0 255 0 0 255 0 0 255 0 0 255 0 0 
170 0 0 170 0 0 170 0 0 0 0 0 0 0 0 0 0 0 0 0 0 0 0 0 170 0 0 170 0 0 170 0 0 
255 0 0 255 0 0 255 0 0 255 0 0 170 0 0 170 0 0 170 0 0 0 0 0 0 0 0 0 0 0 
0 0 0 0 0 0 0 0 0 0 0 0 85 0 0 85 0 0 170 0 0 255 0 0 255 0 0 170 0 0 85 0 0 
85 0 0 0 0 0 0 0 0 0 0 0 0 0 0 0 0 0 0 0 0 0 0 0 0 0 0 0 0 0 85 0 0 85 0 0 
170 0 0 170 0 0 85 0 0 85 0 0 0 0 0 0 0 0 0 0 0 0 0 0 0 0 0 0 0 0 0 0 0 
0 0 0 0 0 0 0 0 0 0 0 0 85 0 0 85 0 0 85 0 0 85 0 0 0 0 0 0 0 0 0 0 0 0 0 0 
0 0 0 0 0 0 0 0 0 0 0 0 0 0 0 0 0 0 0 0 0 0 0 0 0 0 0 85 0 0 85 0 0 0 0 0 
0 0 0 0 0 0 0 0 0 0 0 0 0 0 0 0 0 0 0 0 0 0 0 0 0 0 0 0 0 0 0 0 0 0 0 0 
0 0 0 0 0 0 0 0 0 0 0 0 0 0 0 0 0 0 0 0 0 0 0 0 0 0 0 0 0 0 
