P3
# Created by Paint Shop Pro
16 16
255
0 0 0 0 0 0 0 0 0 0 0 0 0 0 0 0 0 0 0 0 0 0 0 0 0 0 0 0 0 0 0 0 0 0 0 0 
0 0 0 0 0 0 0 0 0 0 0 0 0 0 0 0 0 0 0 0 0 0 0 0 200 89 0 209 68 0 216 48 3 
216 22 6 216 6 17 216 4 44 212 0 65 207 0 90 0 0 0 0 0 0 0 0 0 0 0 0 0 0 0 
0 0 0 0 0 0 213 139 0 217 125 15 234 147 84 248 156 122 254 142 130 254 129 138 
248 119 150 234 80 140 217 16 122 214 0 136 0 0 0 0 0 0 0 0 0 0 0 0 0 0 0 
209 178 0 217 170 25 248 203 123 255 179 103 255 150 100 255 126 108 255 108 121 
255 102 146 255 103 174 248 112 196 217 24 166 211 0 176 0 0 0 0 0 0 0 0 0 
164 172 0 209 203 12 247 232 119 255 218 98 255 200 114 255 181 130 255 158 140 
255 140 153 255 132 178 255 117 197 255 100 214 247 103 227 210 11 200 
186 0 192 0 0 0 0 0 0 158 192 0 213 228 72 250 253 100 255 243 113 255 227 138 
255 211 158 255 189 171 255 172 185 255 161 208 255 142 224 255 118 241 
251 99 252 212 56 228 168 0 200 0 0 0 0 0 0 137 200 0 210 245 105 224 255 99 
239 255 129 252 252 158 255 239 184 255 221 202 255 204 217 255 187 236 
253 162 250 242 134 255 226 104 255 205 83 245 140 0 200 0 0 0 0 0 0 103 195 0 
193 253 110 196 255 105 211 255 137 227 255 169 243 255 200 253 249 228 
254 232 246 246 205 255 230 175 255 214 143 255 198 110 255 185 89 253 
106 0 195 0 0 0 0 0 0 68 191 0 164 253 102 164 255 105 181 255 137 196 255 169 
212 255 200 230 255 235 233 241 255 215 206 255 199 175 255 183 143 255 
167 110 255 153 83 253 71 0 191 0 0 0 0 0 0 30 186 0 121 243 82 130 255 99 
144 255 129 161 255 162 184 255 200 202 255 236 204 241 255 187 206 255 
165 168 255 147 134 255 132 104 255 106 64 243 32 0 186 0 0 0 0 0 0 1 165 0 
54 216 45 96 255 93 113 255 125 138 255 166 158 255 203 171 255 236 172 242 255 
161 209 255 142 172 255 118 132 255 95 93 255 42 32 216 2 0 175 0 0 0 0 0 0 
0 130 0 6 182 6 69 242 87 93 255 131 114 255 169 130 255 204 140 255 237 
140 242 255 132 210 255 117 175 255 96 137 255 61 84 242 4 5 182 0 0 156 
0 0 0 0 0 0 0 0 0 0 166 0 10 181 23 62 240 123 87 255 171 100 255 205 108 255 237 
108 242 255 102 210 255 89 177 255 61 126 240 9 29 181 0 0 171 0 0 0 0 0 0 
0 0 0 0 0 0 0 0 0 0 150 3 4 159 41 30 198 115 58 235 185 73 251 233 74 238 251 
59 190 235 31 121 198 4 47 159 0 6 153 0 0 0 0 0 0 0 0 0 0 0 0 0 0 0 0 0 0 
0 0 0 0 108 16 0 119 43 0 136 86 0 136 118 0 123 136 0 91 136 0 51 124 
0 19 118 0 0 0 0 0 0 0 0 0 0 0 0 0 0 0 0 0 0 0 0 0 0 0 0 0 0 0 0 0 0 0 0 0 
0 0 0 0 0 0 0 0 0 0 0 0 0 0 0 0 0 0 0 0 0 0 0 0 0 0 0 
